<?xml version="1.0" encoding="UTF-8"?>
<svg version="1.1" xmlns="http://www.w3.org/2000/svg" width="654" height="381">
<path d="M0 0 C1.14919922 -0.01224609 2.29839844 -0.02449219 3.48242188 -0.03710938 C4.58263672 -0.03904297 5.68285156 -0.04097656 6.81640625 -0.04296875 C7.8226001 -0.04707764 8.82879395 -0.05118652 9.86547852 -0.05541992 C12.4375 0.1875 12.4375 0.1875 15.4375 2.1875 C16.81205398 8.8581296 15.11980093 16.33790652 14.125 23 C13.94880127 24.21804321 13.94880127 24.21804321 13.76904297 25.46069336 C12.98189953 30.34289273 12.0880138 35.5369862 8.4375 39.1875 C4.9476867 39.60340408 1.46004431 39.95727876 -2.04101562 40.26171875 C-11.1158737 41.19045531 -17.53306474 45.41298244 -23.5625 52.1875 C-28.02676498 59.88408799 -29.60961145 68.31599035 -27.33984375 76.96484375 C-24.64756123 84.66287769 -19.30376641 90.68324576 -12.5625 95.1875 C-9.45052216 96.38976721 -6.40574736 97.32227099 -3.1640625 98.10546875 C0.15405762 99.48552772 1.02088957 100.93733352 2.4375 104.1875 C1.72291109 106.33126674 1.02525583 107.59974417 -0.5625 109.1875 C-9.06333774 110.17420438 -16.24588928 108.12798961 -23.125 103.125 C-33.21219709 94.69548915 -38.45889555 85.28201785 -40.5 72.3125 C-41.21907556 61.96115642 -38.10124063 50.33001521 -31.5625 42.25 C-21.87662121 31.79087879 -12.37447959 28.16063994 1.4375 26.1875 C2.0975 20.9075 2.7575 15.6275 3.4375 10.1875 C-6.38985247 11.60058336 -15.47940622 13.00215287 -24.5625 17.1875 C-26.55552124 17.8747487 -28.55217123 18.55265933 -30.5625 19.1875 C-30.5625 19.8475 -30.5625 20.5075 -30.5625 21.1875 C-31.34625 21.435 -32.13 21.6825 -32.9375 21.9375 C-36.06780909 23.42812337 -36.10253879 24.18169751 -37.5625 27.1875 C-38.8928125 28.2084375 -38.8928125 28.2084375 -40.25 29.25 C-48.81411015 36.09710029 -53.28470294 47.58554855 -55.3125 58.0625 C-55.42736074 59.43522592 -55.50656908 60.811113 -55.5625 62.1875 C-55.60246094 63.16460937 -55.64242187 64.14171875 -55.68359375 65.1484375 C-55.99725065 80.68367927 -52.93535282 94.8843302 -42.3125 106.6875 C-41.405 107.5125 -40.4975 108.3375 -39.5625 109.1875 C-38.58990234 110.13109375 -38.58990234 110.13109375 -37.59765625 111.09375 C-25.1040847 122.86273831 -10.8814511 125.94884399 5.875 125.46875 C19.71334321 124.78481211 32.43873432 118.81268543 42.4375 109.1875 C43.11262537 107.85842966 43.7790446 106.52490746 44.4375 105.1875 C45.76680719 103.85015264 47.10037342 102.51702927 48.4375 101.1875 C53.35001283 94.05207511 55.6113809 86.70481618 57.48046875 78.375 C58.39791397 75.31934572 58.87564593 74.00349782 61.4375 72.1875 C63.9375 71.6875 63.9375 71.6875 66.4375 72.1875 C69.03402543 75.27013293 69.44738123 76.8713006 69.3203125 80.9375 C69.09536493 82.35882048 68.84118021 83.77573138 68.5625 85.1875 C68.418125 85.9393457 68.27375 86.69119141 68.125 87.46582031 C65.35094072 100.42794256 57.61272362 110.8905487 48.4375 120.1875 C47.7775 120.1875 47.1175 120.1875 46.4375 120.1875 C46.4375 120.8475 46.4375 121.5075 46.4375 122.1875 C45.7775 122.1875 45.1175 122.1875 44.4375 122.1875 C44.4375 122.8475 44.4375 123.5075 44.4375 124.1875 C26.33541698 134.73352788 7.35738552 142.22079361 -13.9140625 137.30859375 C-30.58942537 132.73503057 -43.51434769 124.43963154 -54.5625 111.1875 C-55.284375 110.383125 -56.00625 109.57875 -56.75 108.75 C-59.31167886 105.12831609 -60.91751751 101.29358031 -62.5625 97.1875 C-62.91570312 96.31609375 -63.26890625 95.4446875 -63.6328125 94.546875 C-70.82170846 75.90899659 -69.83675994 57.39484161 -62.125 39.0625 C-57.10158134 27.77482302 -49.04133604 19.89376856 -39.5625 12.1875 C-38.80066406 11.50042969 -38.03882813 10.81335938 -37.25390625 10.10546875 C-33.58430235 7.49040995 -29.70645751 6.05832445 -25.5 4.5 C-24.69755859 4.19255859 -23.89511719 3.88511719 -23.06835938 3.56835938 C-15.08418544 0.54033656 -8.56626675 0.00482063 0 0 Z " fill="#F8B529" transform="translate(311.5625,137.8125)"/>
<path d="M0 0 C2.73828125 0.046875 2.73828125 0.046875 6 1 C7.99027624 3.0648743 9.54813627 4.93706362 11.1875 7.25 C12.1368233 8.52660218 13.08871791 9.80129565 14.04296875 11.07421875 C14.52685059 11.72567871 15.01073242 12.37713867 15.50927734 13.04833984 C18.30888801 16.71360149 21.35154344 20.17406167 24.38354492 23.64746094 C26.37279496 25.95515486 28.09610701 28.16610803 29.625 30.80859375 C30.87107008 33.31009177 30.87107008 33.31009177 34 34 C38.39235607 25.56512152 42.20005583 16.8977241 45.77636719 8.08740234 C46.93793363 5.26947421 47.82226502 3.17773498 50 1 C52.74831424 0.74135511 55.40237121 0.60201514 58.15625 0.55078125 C58.97315308 0.52904343 59.79005615 0.5073056 60.63171387 0.48490906 C62.36666875 0.44092798 64.10175074 0.40174285 65.83691406 0.36694336 C68.46203447 0.31327616 71.08629057 0.2428837 73.7109375 0.16992188 C94.09890702 -0.34829669 94.09890702 -0.34829669 98 1 C99.76025391 2.89599609 99.76025391 2.89599609 101 5 C100.7130253 8.57570477 99.44799 11.74476925 98.125 15.0625 C97.79757812 15.89910156 97.47015625 16.73570313 97.1328125 17.59765625 C96 20 96 20 94.51171875 21.90625 C92.56441998 24.60328396 91.7299554 27.28147522 90.6875 30.4375 C88.61709495 36.43732243 86.19228892 42.11267691 83.46875 47.8515625 C81.61260045 51.83043626 79.9587196 55.87851993 78.296875 59.94140625 C76.41134403 64.38830609 74.32707627 68.73724085 72.234375 73.08984375 C71.06496738 75.84683323 70.19876321 78.01370404 70 81 C71.01986335 83.38889569 71.01986335 83.38889569 72.6875 85.5625 C73.20699219 86.30628906 73.72648437 87.05007812 74.26171875 87.81640625 C76.04221802 90.05303342 77.97199771 91.98736137 80 94 C98.47691389 115.68732037 98.47691389 115.68732037 98 123 C97 124 97 124 94.7109375 124.33984375 C90.98405477 123.87264087 90.01925571 122.40189711 87.625 119.5625 C86.84640625 118.64855469 86.0678125 117.73460937 85.265625 116.79296875 C82.69354298 113.62221246 80.17092339 110.42138879 77.69921875 107.171875 C75.41171078 104.24807171 72.96190517 101.48623779 70.48046875 98.7265625 C69 97 69 97 67 94 C66.01 94 65.02 94 64 94 C63.71801758 94.66531738 63.43603516 95.33063477 63.14550781 96.01611328 C61.85328108 99.05512153 60.55173607 102.09005355 59.25 105.125 C58.58484375 106.69507813 58.58484375 106.69507813 57.90625 108.296875 C53.40942383 118.74538287 53.40942383 118.74538287 50 123 C47.25222308 123.91592564 45.60764914 124.13077683 42.77563477 124.14526367 C41.92787979 124.15164352 41.08012482 124.15802338 40.2066803 124.16459656 C39.29413986 124.16570938 38.38159943 124.1668222 37.44140625 124.16796875 C36.50070786 124.17129715 35.56000946 124.17462555 34.59080505 124.17805481 C32.6011504 124.18311765 30.61148726 124.18546333 28.62182617 124.18530273 C25.57782002 124.187489 22.53417639 124.20565091 19.49023438 124.22460938 C17.55729291 124.22754346 15.62434972 124.22952815 13.69140625 124.23046875 C12.78089005 124.23765427 11.87037384 124.24483978 10.93226624 124.25224304 C10.0813591 124.24916641 9.23045197 124.24608978 8.35375977 124.24291992 C7.60780045 124.24434494 6.86184113 124.24576996 6.09327698 124.24723816 C3.6400666 123.95748806 2.0684906 123.34696134 0 122 C-1.75092105 117.15921828 -0.99527126 114.44097858 1.125 109.8125 C2.08319613 107.87493214 3.04153383 105.93743429 4 104 C4.85032746 102.02807496 5.68366627 100.04873875 6.5 98.0625 C6.90992188 97.06992188 7.31984375 96.07734375 7.7421875 95.0546875 C8.15726562 94.04664063 8.57234375 93.03859375 9 92 C9.87390862 89.89537983 10.74889301 87.79120599 11.625 85.6875 C12.20121094 84.30111328 12.20121094 84.30111328 12.7890625 82.88671875 C13.18867188 81.93410156 13.58828125 80.98148437 14 80 C14.43699219 78.95457031 14.87398438 77.90914063 15.32421875 76.83203125 C16.63738519 73.76895327 18.04981733 70.75988285 19.48046875 67.75 C19.92197266 66.8115625 20.36347656 65.873125 20.81835938 64.90625 C21.73325939 62.96420831 22.65780588 61.02668269 23.59179688 59.09375 C26.96851158 51.87284713 26.96851158 51.87284713 27 44 C25.65449788 41.40078614 25.65449788 41.40078614 23.6875 39.25 C22.76517578 38.14398438 22.76517578 38.14398438 21.82421875 37.015625 C20.73527732 35.81242633 19.62358441 34.62838563 18.46875 33.48828125 C16.74824065 31.74489279 15.29060255 29.89005522 13.8125 27.9375 C13.28269531 27.24527344 12.75289063 26.55304688 12.20703125 25.83984375 C11 24 11 24 11 22 C10.01 21.67 9.02 21.34 8 21 C6.24609375 18.6015625 6.24609375 18.6015625 4.4375 15.625 C3.83808594 14.64789063 3.23867188 13.67078125 2.62109375 12.6640625 C2.08613281 11.78492187 1.55117188 10.90578125 1 10 C0.34 9.01 -0.32 8.02 -1 7 C-1.1875 3.875 -1.1875 3.875 -1 1 C-0.67 0.67 -0.34 0.34 0 0 Z M54.8984375 14.54296875 C54.21721713 16.00708175 53.58340783 17.49423662 53 19 C52.37469373 20.3103715 51.74842346 21.6202835 51.12109375 22.9296875 C50.55296981 24.2418145 49.99185356 25.55699613 49.4375 26.875 C48.98818115 27.92143677 48.98818115 27.92143677 48.52978516 28.98901367 C46.59652983 33.51408853 44.75417124 38.07154864 42.95703125 42.65234375 C41.50965433 46.20284794 39.88699199 49.6694532 38.28515625 53.15234375 C35.60827664 59.08378823 33.17649821 65.12133417 30.71484375 71.14453125 C28.63154799 76.2094246 26.46968076 81.15256932 23.9609375 86.01953125 C22.48794394 89.05533505 21.30153272 92.19388331 20.0859375 95.33984375 C18.52433431 99.16520985 16.69418683 102.85568279 14.85546875 106.5546875 C13.91799259 109.23441389 14.00920923 110.38625749 15 113 C20.20751622 114.04150324 25.27240563 114.25113 30.5625 114.3125 C31.39974609 114.34150391 32.23699219 114.37050781 33.09960938 114.40039062 C37.09256775 114.44148996 39.42210916 114.32912989 42.94921875 112.3203125 C45.21781743 109.75355514 46.1652928 107.80370842 47.25 104.5625 C49.38733611 98.59131723 51.73935438 92.76198394 54.25 86.9375 C54.632771 86.04708008 55.01554199 85.15666016 55.40991211 84.23925781 C58.49487701 77.09781621 61.66926805 69.99782722 64.90527344 62.92358398 C67.44422789 57.34648882 69.74985734 51.69893663 72 46 C75.29274597 37.95000186 78.6985241 29.96007737 82.359375 22.0703125 C82.81828125 21.07773438 83.2771875 20.08515625 83.75 19.0625 C84.17796875 18.14597656 84.6059375 17.22945312 85.046875 16.28515625 C86.12831714 14.10501467 86.12831714 14.10501467 86 12 C81.64271247 9.82135624 75.97343246 10.54796436 71.1875 10.4375 C69.99833984 10.37498047 68.80917969 10.31246094 67.58398438 10.24804688 C60.11336104 9.90899415 60.11336104 9.90899415 54.8984375 14.54296875 Z " fill="#FEFEFE" transform="translate(310,105)"/>
<path d="M0 0 C1 1 1 1 1.1328125 3.0390625 C1.09090909 16.90909091 1.09090909 16.90909091 -2 20 C-3.32 20 -4.64 20 -6 20 C-6 22.64 -6 25.28 -6 28 C-2.37 28 1.26 28 5 28 C4.67 28.66 4.34 29.32 4 30 C0.50606398 30.51103073 -2.96105202 30.83817131 -6.47851562 31.12304688 C-15.56995966 31.99828563 -21.96380826 36.21789103 -28 43 C-32.46426498 50.69658799 -34.04711145 59.12849035 -31.77734375 67.77734375 C-29.08506123 75.47537769 -23.74126641 81.49574576 -17 86 C-13.88802216 87.20226721 -10.84324736 88.13477099 -7.6015625 88.91796875 C-4.28344238 90.29802772 -3.41661043 91.74983352 -2 95 C-2.71458891 97.14376674 -3.41224417 98.41224417 -5 100 C-13.50083774 100.98670438 -20.68338928 98.94048961 -27.5625 93.9375 C-37.64969709 85.50798915 -42.89639555 76.09451785 -44.9375 63.125 C-45.65657556 52.77365642 -42.53874063 41.14251521 -36 33.0625 C-26.31412121 22.60337879 -16.81197959 18.97313994 -3 17 C-2.34 11.72 -1.68 6.44 -1 1 C-3.85626876 1.42617343 -6.70947345 1.86553325 -9.5625 2.3125 C-10.36236328 2.43044922 -11.16222656 2.54839844 -11.98632812 2.66992188 C-15.87744177 3.28932364 -19.31387926 4.0092126 -22.90234375 5.66796875 C-26 7 -26 7 -29 6 C-28.67 5.34 -28.34 4.68 -28 4 C-26.68 4 -25.36 4 -24 4 C-24 3.34 -24 2.68 -24 2 C-16.02209683 -0.23941142 -8.24264297 -0.45208373 0 0 Z " fill="#F6BE41" transform="translate(316,147)"/>
<path d="M0 0 C1 1 1 1 1.1328125 3.0390625 C1.09090909 16.90909091 1.09090909 16.90909091 -2 20 C-3.32 20 -4.64 20 -6 20 C-6 22.64 -6 25.28 -6 28 C-2.37 28 1.26 28 5 28 C4.67 28.66 4.34 29.32 4 30 C0.50606398 30.51103073 -2.96105202 30.83817131 -6.47851562 31.12304688 C-15.56995966 31.99828563 -21.96380826 36.21789103 -28 43 C-32.99264597 51.60753991 -33.45126122 60.35469468 -32 70 C-32.99 70 -33.98 70 -35 70 C-35 62.74 -35 55.48 -35 48 C-34.34 48 -33.68 48 -33 48 C-32.34 45.69 -31.68 43.38 -31 41 C-30.34 41 -29.68 41 -29 41 C-29.2784375 39.7934375 -29.2784375 39.7934375 -29.5625 38.5625 C-29.706875 37.716875 -29.85125 36.87125 -30 36 C-29.505 35.505 -29.505 35.505 -29 35 C-29.33 34.34 -29.66 33.68 -30 33 C-30.66 33 -31.32 33 -32 33 C-32.20625 33.598125 -32.4125 34.19625 -32.625 34.8125 C-34.50926082 37.81018767 -36.81132084 38.61361776 -40 40 C-35.71634852 30.91944848 -27.42644336 23.51019466 -18.08984375 19.86328125 C-13.06553223 18.44652216 -8.19472675 17.74210382 -3 17 C-2.34 11.72 -1.68 6.44 -1 1 C-3.85626876 1.42617343 -6.70947345 1.86553325 -9.5625 2.3125 C-10.36236328 2.43044922 -11.16222656 2.54839844 -11.98632812 2.66992188 C-15.87744177 3.28932364 -19.31387926 4.0092126 -22.90234375 5.66796875 C-26 7 -26 7 -29 6 C-28.67 5.34 -28.34 4.68 -28 4 C-26.68 4 -25.36 4 -24 4 C-24 3.34 -24 2.68 -24 2 C-16.02209683 -0.23941142 -8.24264297 -0.45208373 0 0 Z " fill="#F8B426" transform="translate(316,147)"/>
<path d="M0 0 C-0.66 0 -1.32 0 -2 0 C-1.505 2.475 -1.505 2.475 -1 5 C-3.64 4.67 -6.28 4.34 -9 4 C-9 4.99 -9 5.98 -9 7 C-7.68 7 -6.36 7 -5 7 C-5 7.66 -5 8.32 -5 9 C-3.68 9.33 -2.36 9.66 -1 10 C-1 9.34 -1 8.68 -1 8 C-0.01 8.33 0.98 8.66 2 9 C1.67 9.66 1.34 10.32 1 11 C-1.5625 11.625 -1.5625 11.625 -4 12 C-4 12.66 -4 13.32 -4 14 C-4.78375 14.2475 -5.5675 14.495 -6.375 14.75 C-9.50530909 16.24062337 -9.54003879 16.99419751 -11 20 C-12.44297431 21.14782047 -13.88692395 22.29448235 -15.33984375 23.4296875 C-18.0365265 25.98043212 -19.85093493 29.06987693 -21.80078125 32.20703125 C-22.19652344 32.79871094 -22.59226562 33.39039063 -23 34 C-23.33 34 -23.66 34 -24 34 C-24 32.02 -24 30.04 -24 28 C-23.34 28 -22.68 28 -22 28 C-22.66 27.34 -23.32 26.68 -24 26 C-24.433125 26.474375 -24.86625 26.94875 -25.3125 27.4375 C-27 29 -27 29 -30 30 C-31.22520264 33.00847418 -31.22520264 33.00847418 -32 36 C-32.66 36 -33.32 36 -34 36 C-34 36.66 -34 37.32 -34 38 C-34.99 38 -35.98 38 -37 38 C-32.8955735 23.82107209 -24.27050392 14.12895186 -13 5 C-11.700625 3.9171875 -11.700625 3.9171875 -10.375 2.8125 C-4.55704698 -1.62751678 -4.55704698 -1.62751678 0 0 Z " fill="#F8B321" transform="translate(285,145)"/>
<path d="M0 0 C1.32 0.33 2.64 0.66 4 1 C4 1.66 4 2.32 4 3 C3.34 3 2.68 3 2 3 C2.20625 3.78375 2.4125 4.5675 2.625 5.375 C2.74875 6.24125 2.8725 7.1075 3 8 C2.34 8.66 1.68 9.32 1 10 C0.29289322 11.64991582 -0.37943989 13.31562256 -1 15 C-1.66 15 -2.32 15 -3 15 C-2.67 21.93 -2.34 28.86 -2 36 C-1.34 36.33 -0.68 36.66 0 37 C-0.54087318 40.78611227 -2.11722332 42.55400767 -5 45 C-5.66 45 -6.32 45 -7 45 C-7.13277344 44.36191406 -7.26554687 43.72382813 -7.40234375 43.06640625 C-7.66724609 41.82697266 -7.66724609 41.82697266 -7.9375 40.5625 C-8.11152344 39.73878906 -8.28554688 38.91507813 -8.46484375 38.06640625 C-8.80752994 36.02338796 -8.80752994 36.02338796 -10 35 C-10.55703145 28.09540092 -9.75153611 21.49749856 -8.4375 14.7265625 C-7.90293963 12.0171725 -7.90293963 12.0171725 -8.15234375 9.31640625 C-8 7 -8 7 -6.50390625 5.48828125 C-5.54291016 4.90626953 -5.54291016 4.90626953 -4.5625 4.3125 C-1.752744 2.65808423 -1.752744 2.65808423 0 0 Z " fill="#F9B11B" transform="translate(284,180)"/>
<path d="M0 0 C0.99 0.33 1.98 0.66 3 1 C6.0286184 1.23002165 9.05593162 1.38057671 12.08984375 1.5234375 C15.27744166 2.0454334 16.69263372 2.77848921 19 5 C19.9375 7.5 19.9375 7.5 20 10 C18.40061547 12.15994052 17.52772544 12.91969396 14.84375 13.328125 C14.0703125 13.30234375 13.296875 13.2765625 12.5 13.25 C11.33984375 13.22679687 11.33984375 13.22679687 10.15625 13.203125 C8 13 8 13 5 12 C5 11.34 5 10.68 5 10 C3.68 9.67 2.36 9.34 1 9 C0.63877119 7.68942607 0.28619689 6.37646376 -0.0625 5.0625 C-0.35833984 3.96615234 -0.35833984 3.96615234 -0.66015625 2.84765625 C-0.77230469 2.23792969 -0.88445312 1.62820312 -1 1 C-0.67 0.67 -0.34 0.34 0 0 Z " fill="#F8B11D" transform="translate(294,234)"/>
<path d="M0 0 C0.33 0 0.66 0 1 0 C1.9347689 4.29993696 2.04555898 7.446539 1.0625 11.75 C-0.74409329 19.82436591 -0.6108575 27.1674275 2 35 C2 35.99 2 36.98 2 38 C2.66 38 3.32 38 4 38 C4.33 37.01 4.66 36.02 5 35 C5.99 34.34 6.98 33.68 8 33 C8.66 32.01 9.32 31.02 10 30 C11.32 32.64 12.64 35.28 14 38 C12.02 38.99 10.04 39.98 8 41 C8 40.34 8 39.68 8 39 C7.01 39 6.02 39 5 39 C5.57344937 41.86724686 5.8614515 42.8614515 8 45 C8.625 47.125 8.625 47.125 9 49 C3.12980878 43.45593052 -0.42350984 38.19356032 -2.3125 30.3125 C-2.48273682 29.60843018 -2.65297363 28.90436035 -2.82836914 28.17895508 C-5.0449869 18.22064927 -2.95656639 9.61348945 0 0 Z " fill="#F7C451" transform="translate(275,187)"/>
<path d="M0 0 C2.125 1.875 2.125 1.875 4 4 C4 4.66 4 5.32 4 6 C5.32 6 6.64 6 8 6 C8.33 6.99 8.66 7.98 9 9 C8 10.5625 8 10.5625 6 12 C3.23385218 11.96726452 0.73969453 11.49404328 -2 11 C-2 10.01 -2 9.02 -2 8 C-4.31 7.34 -6.62 6.68 -9 6 C-8.67 4.35 -8.34 2.7 -8 1 C-7.67 1.66 -7.34 2.32 -7 3 C-6.21625 2.505 -5.4325 2.01 -4.625 1.5 C-2 0 -2 0 0 0 Z " fill="#F9B11D" transform="translate(280,255)"/>
<path d="M0 0 C2.5625 0.4375 2.5625 0.4375 4.296875 2.421875 C6.07660597 6.66246856 5.29753868 9.72146516 4.375 14.125 C4.23513672 14.89650391 4.09527344 15.66800781 3.95117188 16.46289062 C2.85431886 22.14568114 2.85431886 22.14568114 0.5625 24.4375 C0.8925 17.8375 1.2225 11.2375 1.5625 4.4375 C-0.0875 4.4375 -1.7375 4.4375 -3.4375 4.4375 C-3.4375 8.0675 -3.4375 11.6975 -3.4375 15.4375 C-4.4275 15.7675 -5.4175 16.0975 -6.4375 16.4375 C-6.4375 17.0975 -6.4375 17.7575 -6.4375 18.4375 C-7.0975 18.4375 -7.7575 18.4375 -8.4375 18.4375 C-6.60212736 1.18499722 -6.60212736 1.18499722 0 0 Z " fill="#F3C961" transform="translate(375.4375,209.5625)"/>
<path d="M0 0 C1 1 1 1 1.1328125 3.0390625 C1.09090909 16.90909091 1.09090909 16.90909091 -1 19 C-2.51928038 19.07179964 -4.04167482 19.08392007 -5.5625 19.0625 C-6.38878906 19.05347656 -7.21507812 19.04445312 -8.06640625 19.03515625 C-9.02353516 19.01775391 -9.02353516 19.01775391 -10 19 C-10 18.67 -10 18.34 -10 18 C-6.535 17.505 -6.535 17.505 -3 17 C-2.34 11.72 -1.68 6.44 -1 1 C-3.85626876 1.42617343 -6.70947345 1.86553325 -9.5625 2.3125 C-10.36236328 2.43044922 -11.16222656 2.54839844 -11.98632812 2.66992188 C-15.87744177 3.28932364 -19.31387926 4.0092126 -22.90234375 5.66796875 C-26 7 -26 7 -29 6 C-28.67 5.34 -28.34 4.68 -28 4 C-26.68 4 -25.36 4 -24 4 C-24 3.34 -24 2.68 -24 2 C-16.02209683 -0.23941142 -8.24264297 -0.45208373 0 0 Z " fill="#F4BD46" transform="translate(316,147)"/>
<path d="M0 0 C0.99 0 1.98 0 3 0 C2.63585401 3.18627737 2.17099388 4.79354333 0.09765625 7.296875 C-4.89760738 13.7339745 -6.42242845 21.81912515 -5.75 29.8125 C-5.52584648 31.54520672 -5.28571799 33.27637516 -5 35 C-5.99 35 -6.98 35 -8 35 C-8 27.74 -8 20.48 -8 13 C-7.34 13 -6.68 13 -6 13 C-5.34 10.69 -4.68 8.38 -4 6 C-3.34 6 -2.68 6 -2 6 C-2.33 4.35 -2.66 2.7 -3 1 C-2.34 1 -1.68 1 -1 1 C-1 1.66 -1 2.32 -1 3 C-0.34 3 0.32 3 1 3 C0.67 2.01 0.34 1.02 0 0 Z " fill="#F7C654" transform="translate(289,182)"/>
<path d="M0 0 C0.33 0 0.66 0 1 0 C1.25055487 7.51664612 1.25055487 7.51664612 0.0078125 9.9140625 C-3.59759751 17.37642276 -0.71046167 28.78138568 0.28808594 36.81884766 C0.75339468 40.57029587 1.12007058 44.2177767 1 48 C-6.79700466 34.16879173 -4.505778 17.65887485 -1 3 C-0.67 2.01 -0.34 1.02 0 0 Z " fill="#F5D177" transform="translate(247,183)"/>
<path d="M0 0 C1.109375 1.72265625 1.109375 1.72265625 2 4 C1.390625 6.05859375 1.390625 6.05859375 0.25 8.4375 C-3.27577344 17.15664243 -3.36354487 26.71060097 -4 36 C-4.33 36 -4.66 36 -5 36 C-6.11165232 31.5621439 -6.11527763 27.23043614 -6.0625 22.6875 C-6.05798828 21.94693359 -6.05347656 21.20636719 -6.04882812 20.44335938 C-6.03712175 18.62887101 -6.01918898 16.81442466 -6 15 C-5.34 15 -4.68 15 -4 15 C-4.04125 13.9275 -4.0825 12.855 -4.125 11.75 C-4.0114175 8.34252515 -3.78726636 6.79260369 -2 4 C-1.34 4 -0.68 4 0 4 C0 2.68 0 1.36 0 0 Z " fill="#F6C85F" transform="translate(259,177)"/>
<path d="M0 0 C0.99 0.33 1.98 0.66 3 1 C2.67 1.66 2.34 2.32 2 3 C-0.5625 3.625 -0.5625 3.625 -3 4 C-3 4.66 -3 5.32 -3 6 C-3.78375 6.2475 -4.5675 6.495 -5.375 6.75 C-8.50530909 8.24062337 -8.54003879 8.99419751 -10 12 C-11.96185416 13.71140469 -13.96302383 15.37873325 -16 17 C-17.01680311 17.98290968 -18.02738219 18.97334787 -19 20 C-19.625 17.625 -19.625 17.625 -20 15 C-17.4345406 12.4345406 -15.52313332 12.45953913 -12 12 C-11.67 10.35 -11.34 8.7 -11 7 C-9.68 6.67 -8.36 6.34 -7 6 C-6.67 4.68 -6.34 3.36 -6 2 C-4.02 2 -2.04 2 0 2 C0 1.34 0 0.68 0 0 Z " fill="#F4CA66" transform="translate(284,153)"/>
<path d="M0 0 C0.33 0 0.66 0 1 0 C1.9347689 4.29993696 2.04555898 7.446539 1.0625 11.75 C-0.16757466 17.16066623 -0.43188274 22.4658747 0 28 C0.33 28.33 0.66 28.66 1 29 C1.04063832 30.66617115 1.042721 32.33388095 1 34 C0.71125 33.38125 0.4225 32.7625 0.125 32.125 C-0.93720042 29.86674235 -0.93720042 29.86674235 -3 28 C-5.24035375 19.84713371 -3.02633225 11.96489015 -1 4 C-0.80148437 3.20335937 -0.60296875 2.40671875 -0.3984375 1.5859375 C-0.26695312 1.06257812 -0.13546875 0.53921875 0 0 Z " fill="#F6C85F" transform="translate(275,187)"/>
<path d="M0 0 C0.33 0 0.66 0 1 0 C1.35445903 3.07197824 1.5274013 5.94213793 1 9 C-1.8125 11.125 -1.8125 11.125 -5 13 C-6.36314052 15.28688043 -7.12254123 17.46511912 -8 20 C-8.66 20 -9.32 20 -10 20 C-10.33 20.99 -10.66 21.98 -11 23 C-12.65 23 -14.3 23 -16 23 C-14.948125 21.7625 -14.948125 21.7625 -13.875 20.5 C-8.49533378 14.01096758 -3.91421445 7.48203824 0 0 Z " fill="#F5CC6C" transform="translate(366,228)"/>
<path d="M0 0 C-0.020625 0.721875 -0.04125 1.44375 -0.0625 2.1875 C-0.08356542 5.00835294 -0.08356542 5.00835294 0.5625 7.75 C0.706875 8.4925 0.85125 9.235 1 10 C0 11 0 11 -2.3125 11.4375 C-5 11 -5 11 -7.3125 8.25 C-9 5 -9 5 -9 1 C-8.401875 1.20625 -7.80375 1.4125 -7.1875 1.625 C-4.0126065 2.16926746 -3.11147803 0 0 0 Z " fill="#F8B11D" transform="translate(289,225)"/>
<path d="M0 0 C1.22589844 0.16371094 2.45179688 0.32742188 3.71484375 0.49609375 C9.66562018 1.15729113 15.58210983 1.10936261 21.5625 1.0625 C22.66658203 1.05798828 23.77066406 1.05347656 24.90820312 1.04882812 C27.605527 1.0371514 30.30273347 1.02077525 33 1 C28.91612287 5.08387713 23.18418562 4.18331342 17.75 4.1875 C16.92886719 4.19974609 16.10773438 4.21199219 15.26171875 4.22460938 C9.83690811 4.23750512 5.21013353 3.51862187 0 2 C0 1.34 0 0.68 0 0 Z " fill="#F7CC62" transform="translate(294,262)"/>
<path d="M0 0 C-0.66 0 -1.32 0 -2 0 C-1.67 1.65 -1.34 3.3 -1 5 C-3.64 4.67 -6.28 4.34 -9 4 C-9 4.99 -9 5.98 -9 7 C-12.0080208 10.0080208 -14.85463326 10.5289356 -19 11 C-16.55605487 7.68321733 -14.73979544 5.68893987 -11 4 C-10.505 3.505 -10.01 3.01 -9.5 2.5 C-6.42894105 -0.57105895 -4.14040138 -1.47871478 0 0 Z " fill="#F8C968" transform="translate(285,145)"/>
<path d="M0 0 C3.01967027 4.5295054 2.25062832 8.42772498 1.4140625 13.67578125 C1.02347656 15.47595703 1.02347656 15.47595703 0.625 17.3125 C0.36976563 18.52550781 0.11453125 19.73851562 -0.1484375 20.98828125 C-1 24 -1 24 -3 26 C-3.25023349 18.68762137 -2.66338657 12.11492357 -1 5 C-0.6617332 3.33432762 -0.32709734 1.66790174 0 0 Z " fill="#F6C960" transform="translate(324,149)"/>
<path d="M0 0 C3.3125 0.1875 3.3125 0.1875 7 1 C9.0625 3.3125 9.0625 3.3125 10 6 C9.28541109 8.14376674 8.58775583 9.41224417 7 11 C5.0390625 11.16796875 5.0390625 11.16796875 2.625 11.1875 C1.83351563 11.20167969 1.04203125 11.21585938 0.2265625 11.23046875 C-2 11 -2 11 -5 9 C-0.58774263 7.52924754 2.48281619 6.63115642 7 8 C6.67 6.35 6.34 4.7 6 3 C4.02 2.34 2.04 1.68 0 1 C0 0.67 0 0.34 0 0 Z " fill="#F2CC6F" transform="translate(304,236)"/>
<path d="M0 0 C0.66 0.33 1.32 0.66 2 1 C1.34 1.66 0.68 2.32 0 3 C-0.639375 3.845625 -1.27875 4.69125 -1.9375 5.5625 C-4 8 -4 8 -7 9 C-7.268125 9.61875 -7.53625 10.2375 -7.8125 10.875 C-9.51576924 13.92295549 -11.8737675 14.64076848 -15 16 C-11.67401914 8.86397534 -6.48043589 4.27708769 0 0 Z " fill="#F6CE6D" transform="translate(291,171)"/>
<path d="M0 0 C-6.73977784 4.49318522 -14.70623924 4.27486264 -22.5625 4.125 C-23.47580078 4.11597656 -24.38910156 4.10695313 -25.33007812 4.09765625 C-27.55367319 4.07437253 -29.77668677 4.0416771 -32 4 C-32 3.67 -32 3.34 -32 3 C-30.64455078 2.90912109 -30.64455078 2.90912109 -29.26171875 2.81640625 C-28.08222656 2.73261719 -26.90273438 2.64882813 -25.6875 2.5625 C-23.92986328 2.44068359 -23.92986328 2.44068359 -22.13671875 2.31640625 C-18.97409042 2.1132629 -18.97409042 2.1132629 -16 1 C-14.2125453 0.77587642 -12.4197797 0.59239195 -10.625 0.4375 C-9.68914062 0.35371094 -8.75328125 0.26992188 -7.7890625 0.18359375 C-5.18226956 0.01199814 -2.6113921 -0.0332359 0 0 Z " fill="#F9DD85" transform="translate(334,272)"/>
<path d="M0 0 C0.78375 0.04125 1.5675 0.0825 2.375 0.125 C1.75625 0.33125 1.1375 0.5375 0.5 0.75 C-2.5754151 2.73997447 -2.82717345 4.60126605 -3.625 8.125 C-3.70022969 10.45712027 -3.71825876 12.7935311 -3.625 15.125 C-4.615 15.455 -5.605 15.785 -6.625 16.125 C-6.625 16.785 -6.625 17.445 -6.625 18.125 C-7.285 18.125 -7.945 18.125 -8.625 18.125 C-6.73090631 0.32051935 -6.73090631 0.32051935 0 0 Z " fill="#F6C867" transform="translate(375.625,209.875)"/>
<path d="M0 0 C-0.33 0.66 -0.66 1.32 -1 2 C-3.44677369 2.59029522 -5.83629113 3.07841907 -8.3125 3.5 C-13.45100692 4.32755539 -13.45100692 4.32755539 -18.29296875 6.15625 C-20 7 -20 7 -23 6 C-22.67 5.34 -22.34 4.68 -22 4 C-20.68 4 -19.36 4 -18 4 C-18 3.34 -18 2.68 -18 2 C-11.85221129 0.3722167 -6.35987804 -0.20190089 0 0 Z " fill="#F6D070" transform="translate(310,147)"/>
<path d="M0 0 C0.33 0 0.66 0 1 0 C1.19294408 4.82360189 0.75747614 8.49646738 -1 13 C-1.66 13 -2.32 13 -3 13 C-3 13.66 -3 14.32 -3 15 C-3.99 15 -4.98 15 -6 15 C-4.40109514 9.80355921 -2.25861997 4.93387858 0 0 Z " fill="#F8C351" transform="translate(254,168)"/>
<path d="M0 0 C1.05960937 0.00676758 1.05960937 0.00676758 2.140625 0.01367188 C3.88545275 0.02546125 5.630237 0.04339676 7.375 0.0625 C7.045 0.7225 6.715 1.3825 6.375 2.0625 C3.66053021 2.37491455 1.03590639 2.57586592 -1.6875 2.6875 C-2.44611328 2.72617188 -3.20472656 2.76484375 -3.98632812 2.8046875 C-5.86547195 2.89923562 -7.74520336 2.98196756 -9.625 3.0625 C-9.625 2.4025 -9.625 1.7425 -9.625 1.0625 C-6.55966836 -0.47016582 -3.35745728 -0.04026471 0 0 Z " fill="#F5D477" transform="translate(313.625,174.9375)"/>
<path d="M0 0 C2.64 0.33 5.28 0.66 8 1 C8 2.65 8 4.3 8 6 C6.35 6 4.7 6 3 6 C3.33 5.01 3.66 4.02 4 3 C2.68 3 1.36 3 0 3 C0 2.01 0 1.02 0 0 Z " fill="#F8B11C" transform="translate(276,149)"/>
<path d="M0 0 C-0.66 0 -1.32 0 -2 0 C-1.67 1.65 -1.34 3.3 -1 5 C-3.64 4.67 -6.28 4.34 -9 4 C-8 1 -8 1 -6.1875 -0.25 C-3.66056586 -1.11637742 -2.47778006 -0.88492145 0 0 Z " fill="#F5C049" transform="translate(285,145)"/>
<path d="M0 0 C1.77230751 0.7883609 3.54279534 1.58081347 5.3125 2.375 C6.29863281 2.81585938 7.28476562 3.25671875 8.30078125 3.7109375 C11 5 11 5 14 7 C12.02 7.33 10.04 7.66 8 8 C8 7.34 8 6.68 8 6 C6.68 6 5.36 6 4 6 C1.75 4.125 1.75 4.125 0 2 C0 1.34 0 0.68 0 0 Z " fill="#F4CD69" transform="translate(280,255)"/>
<path d="M0 0 C0.33 0.99 0.66 1.98 1 3 C0.01 3.33 -0.98 3.66 -2 4 C-2.73323796 6.01508358 -2.73323796 6.01508358 -3 8 C-3.66 8 -4.32 8 -5 8 C-5.33 8.99 -5.66 9.98 -6 11 C-8.0625 11.6875 -8.0625 11.6875 -10 12 C-3.84965831 3.55353075 -3.84965831 3.55353075 0 0 Z " fill="#F5CC65" transform="translate(265,156)"/>
<path d="M0 0 C-2.23775234 3.3566285 -2.93320048 3.57996014 -6.625 4.6875 C-7.44226563 4.93886719 -8.25953125 5.19023437 -9.1015625 5.44921875 C-9.72804688 5.63097656 -10.35453125 5.81273437 -11 6 C-11 3 -11 3 -10 1.3125 C-6.78628571 -0.7965 -3.78496571 -0.18614585 0 0 Z " fill="#F6CC64" transform="translate(354,262)"/>
<path d="M0 0 C-1.0719904 3.4541913 -2.09716431 4.05218083 -5.375 5.8125 C-8.941828 6.98094365 -9.67475827 7.07667519 -13 6 C-11.21118264 4.99491199 -9.41885304 3.99607264 -7.625 3 C-6.62726563 2.443125 -5.62953125 1.88625 -4.6015625 1.3125 C-2 0 -2 0 0 0 Z " fill="#F5CF70" transform="translate(347,254)"/>
<path d="M0 0 C0.99 0 1.98 0 3 0 C2.64950425 3.24208567 2.43778819 4.61527704 -0.0625 6.8125 C-0.701875 7.204375 -1.34125 7.59625 -2 8 C-2.33 5.69 -2.66 3.38 -3 1 C-2.34 1 -1.68 1 -1 1 C-1 1.66 -1 2.32 -1 3 C-0.34 3 0.32 3 1 3 C0.67 2.01 0.34 1.02 0 0 Z " fill="#F9C24B" transform="translate(289,182)"/>
<path d="M0 0 C0.33 0.66 0.66 1.32 1 2 C1.66 2 2.32 2 3 2 C3 2.66 3 3.32 3 4 C3.66 4 4.32 4 5 4 C5.33 6.31 5.66 8.62 6 11 C1.9957657 7.50912907 0.37328935 5.35048061 0 0 Z " fill="#F7D072" transform="translate(252,238)"/>
<path d="M0 0 C0.66 0 1.32 0 2 0 C1.49202991 4.3177458 0.80317221 8.03302114 -1 12 C-1.33 12 -1.66 12 -2 12 C-2.17835515 7.45194365 -1.99785435 4.1205746 0 0 Z " fill="#F5D06F" transform="translate(285,188)"/>
<path d="M0 0 C0 0.99 0 1.98 0 3 C-0.66 3 -1.32 3 -2 3 C-2.33 3.99 -2.66 4.98 -3 6 C-4.65 6 -6.3 6 -8 6 C-3.375 0 -3.375 0 0 0 Z " fill="#F4C65E" transform="translate(358,245)"/>
<path d="M0 0 C-1.4096347 0.70180531 -2.82807641 1.38593958 -4.25 2.0625 C-5.03890625 2.44535156 -5.8278125 2.82820312 -6.640625 3.22265625 C-9.25993522 4.08564091 -10.44855176 3.93045933 -13 3 C-8.24039374 -0.04085956 -5.49642546 -1.50837455 0 0 Z " fill="#F5CE6F" transform="translate(306,167)"/>
<path d="M0 0 C0.66 0.33 1.32 0.66 2 1 C1.34 1.66 0.68 2.32 0 3 C-0.99 4.2684375 -0.99 4.2684375 -2 5.5625 C-4 8 -4 8 -6 9 C-5.69381595 5.32579134 -5.24228216 4.21864487 -2.4375 1.6875 C-1.633125 1.130625 -0.82875 0.57375 0 0 Z " fill="#F4C654" transform="translate(291,171)"/>
<path d="M0 0 C1.32 0 2.64 0 4 0 C2.70700306 2.88437779 1.34058637 4.87219421 -1 7 C-1.625 4.625 -1.625 4.625 -2 2 C-1.34 1.34 -0.68 0.68 0 0 Z " fill="#F7C455" transform="translate(266,166)"/>
<path d="M0 0 C1.61949011 2.57213134 2.04408751 3.67669159 1.625 6.75 C1.41875 7.4925 1.2125 8.235 1 9 C-1.97 9 -4.94 9 -8 9 C-8 8.67 -8 8.34 -8 8 C-4.535 7.505 -4.535 7.505 -1 7 C-0.67 4.69 -0.34 2.38 0 0 Z " fill="#F9DA81" transform="translate(314,157)"/>
<path d="M0 0 C2.97 0.99 5.94 1.98 9 3 C9 3.99 9 4.98 9 6 C4.64464931 4.83857315 2.35380297 3.92300495 0 0 Z " fill="#F7CF72" transform="translate(269,260)"/>
<path d="M0 0 C2.04119788 1.61594832 4.04072937 3.2856382 6 5 C6 5.66 6 6.32 6 7 C4.35 6.67 2.7 6.34 1 6 C0.67 4.02 0.34 2.04 0 0 Z " fill="#F8D07A" transform="translate(264,239)"/>
<path d="M0 0 C0.33 0 0.66 0 1 0 C1.125 7.75 1.125 7.75 0 10 C-0.66 10 -1.32 10 -2 10 C-1.54177532 6.53058454 -1.10868317 3.32604951 0 0 Z " fill="#F4D181" transform="translate(369,218)"/>
<path d="M0 0 C2.4375 0.375 2.4375 0.375 5 1 C5.33 1.66 5.66 2.32 6 3 C4.02 3.66 2.04 4.32 0 5 C0 3.35 0 1.7 0 0 Z " fill="#F7C547" transform="translate(337,266)"/>
<path d="M0 0 C1.7074998 1.28062485 3.37373596 2.61767557 5 4 C5 4.66 5 5.32 5 6 C4.38125 5.814375 3.7625 5.62875 3.125 5.4375 C0.95839822 4.76313824 0.95839822 4.76313824 -1 6 C-0.67 4.02 -0.34 2.04 0 0 Z " fill="#F9B113" transform="translate(358,246)"/>
<path d="M0 0 C0.33 0 0.66 0 1 0 C1.125 5.75 1.125 5.75 0 8 C-0.99 8 -1.98 8 -3 8 C-1.125 2.25 -1.125 2.25 0 0 Z " fill="#F4CC65" transform="translate(251,175)"/>
<path d="M0 0 C3.96 1.98 3.96 1.98 8 4 C8 4.33 8 4.66 8 5 C5.69 5 3.38 5 1 5 C0.67 3.35 0.34 1.7 0 0 Z " fill="#F4D381" transform="translate(296,231)"/>
<path d="M0 0 C0.66 0 1.32 0 2 0 C1.67 2.64 1.34 5.28 1 8 C-1 6 -1 6 -1.1875 3.4375 C-1 1 -1 1 0 0 Z " fill="#F0B328" transform="translate(277,186)"/>
<path d="M0 0 C0.33 0 0.66 0 1 0 C1.6875 3.3125 1.6875 3.3125 2 7 C1.01 7.99 0.02 8.98 -1 10 C-0.67 6.7 -0.34 3.4 0 0 Z " fill="#F4CB5C" transform="translate(275,187)"/>
</svg>
