<svg xmlns="http://www.w3.org/2000/svg" viewBox="0 0 1585.6 297.1"><path fill="#FFF" d="M1025.5 90.9c-1.9-18.8-8.1-35.6-18.4-49.9-19.6-27.3-51.8-42.3-90.7-42.3-38.9 0-80.4 15-116.8 42.2-36.3 27.1-63.4 63.3-76.5 101.9-7 20.6-9.5 40.7-7.6 59.7 1.9 18.8 8.1 35.6 18.4 49.9 19.6 27.3 51.8 42.3 90.7 42.3 45.1 0 93.5-20.2 132.9-55.4 28.5-25.5 49.4-56.1 60.4-88.7 7-20.6 9.5-40.7 7.6-59.7z"/><path d="M830.3 248.1c-23.5-1.2-43-11-54.8-27.5-12.7-17.8-15.7-41.9-8.3-67.8l.7-2.6h-36.5l-.4 1.4c-10.7 36.1-6.8 69.7 11.1 94.7 16.6 23.2 44 36.7 77.1 38l1.5.1 12.2-36.3h-2.6zM770.8 142.2c20.3-52.5 75.9-94.1 129.3-96.8l1.4-.1 12.2-36.4-2.8.1c-35.1 1.4-72.5 15.6-105.2 40.1s-57.9 57-70.9 91.6l-1 2.7h36.6l.4-1.2zM999.1 47.3C982.6 24 955.4 10.5 922.4 9h-1.5l-12.2 36.3 2.6.2c23.4 1.4 42.7 11.2 54.4 27.6 12.7 17.9 15.5 42 8.1 67.9l-.7 2.6h36.5l.4-1.4c10.8-36.2 7-69.9-10.9-94.9zM970.2 151.5c-20.3 52.1-75.7 93.6-128.7 96.5l-1.4.1-12.3 36.4 2.9-.1c40.8-1.8 84.5-20.9 120-52.6 25.4-22.7 44.6-50 55.5-78.8l1-2.7h-36.7l-.3 1.2z"/><path fill="#FFF" d="M637.4 229.1h-54.1c-4 0-7.8-2-10-5.3-2.3-3.3-2.7-7.5-1.3-11.3l48.2-123.2c1.8-4.7 6.3-7.7 11.3-7.7h75.1c14 0 26.5.6 37 1.7 11.1 1.2 20.9 3.3 29.2 6.4 9.2 3.4 16.4 8.1 21.6 13.9 5.8 6.6 8.8 14.7 8.8 24.2 0 10.3-3.6 19.7-10.7 27.9-6.4 7.4-15.4 13.5-27.5 18.8-22.4 9.8-52.3 14.5-91.3 14.5h-12.2l-12.7 32.4c-1.9 4.6-6.4 7.7-11.4 7.7zm42.6-87.6h1.6c14.6 0 25.9-1.7 33.5-4.9 4.4-1.9 5.8-3.6 6.2-4.6-.3-.1-.6-.3-1-.4-3.1-1.2-9.3-2.6-21.8-2.6H685l-5 12.5z"/><path d="M965.6 143.5h-39.9l.6-2.5c3.1-12.8 1.4-24.7-4.8-33.5-5.8-8.3-14.9-13.3-26.4-14.6l-2.5-.3L906 52.8l1.6.1c21.7 1.4 39.6 10.7 50.6 26.2 11.8 16.7 14.6 39 7.9 62.9l-.5 1.5zm-34.7-4h31.7c5.9-22.1 3.2-42.7-7.7-58-9.9-14.1-26.2-22.7-46-24.3l-10.8 32.1c11.4 1.8 20.8 7.4 26.8 15.9 6.4 9.2 8.5 21.3 6 34.3zM842.6 240.7L856 201l1.3-.1c26.8-2.7 54.3-23.5 65.6-49.4l.5-1.2h40l-1.1 2.8c-18.6 46.9-68.8 84.5-116.7 87.4l-3 .2zm16.4-36l-10.6 31.5c44.6-4.2 90.5-38.7 109-81.9H926c-11.9 26.2-39.7 47.1-67 50.4zM817.7 143.5h-18.3l.9-2.7c1.4-4.1 2.1-8.5 2.1-13 0-6.7-1.5-12.7-4.5-18l-.7-1.2.8-1.1C823.1 75.9 860.7 55 896 53l3-.2-13.4 40-1.3.1c-27 2.5-54.8 23.2-66.1 49.4l-.5 1.2zm-12.8-4H815c12-26.4 40.1-47.4 67.6-50.5l10.7-31.8c-33 2.9-67.6 22.5-91.2 51.9 2.9 5.6 4.4 11.9 4.4 18.8-.1 3.9-.6 7.8-1.6 11.6zM835.6 240.6l-1.5-.1c-19.5-1.2-35.7-8.5-47-21.1-11.1-12.5-16.4-29-15.3-47.9l.1-1.1 1-.5c8-4.3 14.3-9.1 19.1-14.7 1.1-1.3 2.2-2.6 3.2-4.1l.6-.9h19.6l-.6 2.5c-3.1 12.9-1.4 24.8 4.9 33.7 5.9 8.3 15.1 13.3 26.7 14.5l2.5.3-13.3 39.4zm-60-67.7c-1.5 35.4 21.2 60.7 57.1 63.5l10.7-31.8c-11.5-1.7-21.1-7.3-27.1-15.8-6.5-9.2-8.7-21.4-6.1-34.5h-12.4c-.9 1.2-1.9 2.4-2.8 3.6-5.1 5.7-11.4 10.6-19.4 15z"/><path fill="#F78E1E" d="M893.5 146.9c0-3 2.4-5.4 5.4-5.4H919c4.8-21.4-6.3-38.5-26.7-41.2l-6.5 19.4c-.9 2.8-4 4.3-6.8 3.4-2.8-.9-4.3-4-3.4-6.8l5.4-16c-22.5 2.5-45.5 19.6-55.3 41.3h16.1c3 0 5.4 2.4 5.4 5.4 0 3-2.4 5.4-5.4 5.4H822c-4.8 21.6 6.5 38.8 27.2 41.3l6.6-19.8c.9-2.8 4-4.3 6.8-3.4 2.8.9 4.3 4 3.4 6.8l-5.5 16.3c22.3-2.7 45-19.7 54.8-41.2h-16.5c-2.9-.1-5.3-2.5-5.3-5.5z"/><path fill="#010101" d="M857.7 195.9l6.5-19.3c.6-1.8-.4-3.7-2.1-4.3-.3-.1-.7-.2-1.1-.2-1.4 0-2.7.9-3.2 2.3l-7.2 21.3-1.6-.2c-10.2-1.2-18.8-6.1-24.1-13.6-5.7-8-7.4-18.8-4.9-30.2l.4-1.6h21.4c1.9 0 3.4-1.5 3.4-3.4s-1.5-3.4-3.4-3.4h-19.3l1.3-2.9c4.9-10.8 13.2-21 23.5-28.6 10.3-7.7 22.2-12.6 33.4-13.8l3.1-.3-6.4 19c-.6 1.8.4 3.7 2.1 4.3.4.1.7.2 1.1.2 1.4 0 2.7-.9 3.2-2.3l7-20.9 1.7.2c10.1 1.4 18.5 6.2 23.7 13.7 5.6 8 7.3 18.7 4.7 30l-.4 1.6h-21.7c-1.9 0-3.4 1.5-3.4 3.4s1.5 3.4 3.4 3.4h19.6l-1.3 2.9c-10 22.2-33.2 39.6-56.4 42.4l-3 .3zm-34-41.6c-1.8 9.7-.2 18.6 4.5 25.4 4.4 6.3 11.2 10.3 19.7 11.6l6.1-18.2c1-3 3.8-5 7-5 .8 0 1.6.1 2.4.4 3.9 1.3 6 5.5 4.7 9.4l-4.4 13.1c19.7-3.6 39-18.1 48.6-36.7H899c-4.1 0-7.4-3.3-7.4-7.4 0-4.1 3.3-7.4 7.4-7.4h18.5c1.8-9.6.2-18.5-4.4-25.2-4.3-6.2-11-10.2-19.3-11.7l-6 17.7c-1 3-3.8 5.1-7 5.1-.8 0-1.6-.1-2.4-.4-3.9-1.3-6-5.5-4.7-9.4l4.4-12.9c-19.7 3.4-39.5 18.3-49.1 36.8h12.9c4.1 0 7.4 3.3 7.4 7.4 0 4.1-3.3 7.4-7.4 7.4h-18.2z"/><g fill="#FFF"><path d="M1087.9 229.1H965.6c-4 0-7.8-2-10-5.3-2.3-3.3-2.7-7.5-1.3-11.3l8.6-21.8c1.8-4.7 6.3-7.7 11.3-7.7h25.8l21.7-55.2h-16.3c-4 0-7.8-2-10-5.3-2.3-3.3-2.7-7.5-1.3-11.3l8.6-21.8c1.8-4.7 6.3-7.7 11.3-7.7h122.3c4 0 7.8 2 10 5.3 2.3 3.3 2.7 7.5 1.3 11.3l-8.6 21.8c-1.8 4.7-6.3 7.7-11.3 7.7h-25.8l-21.7 55.2h16.3c4 0 7.8 2 10 5.3 2.3 3.3 2.7 7.5 1.3 11.3l-8.6 21.8c-1.9 4.6-6.3 7.7-11.3 7.7z"/><path d="M1293.3 229.1h-46.1c-3.9 0-7.6-1.9-9.9-5.1l-48.3-67.2-25.2 64.5c-1.8 4.7-6.3 7.7-11.3 7.7h-49.7c-4 0-7.8-2-10-5.3-2.3-3.3-2.7-7.5-1.3-11.3l48.2-123.2c1.8-4.7 6.3-7.7 11.3-7.7h60.3c3.9 0 7.5 1.8 9.8 4.9l39.4 53.5 19.7-50.7c1.8-4.7 6.3-7.7 11.3-7.7h49.8c4 0 7.8 2 10 5.3 2.3 3.3 2.7 7.5 1.3 11.3l-48.2 123.2c-1.6 4.7-6.1 7.8-11.1 7.8z"/><path d="M1427.6 229.1h-54.1c-4 0-7.8-2-10-5.3-2.3-3.3-2.7-7.5-1.3-11.3l32.4-82.8h-47.3c-4 0-7.8-2-10-5.3s-2.7-7.5-1.3-11.3l9.3-23.8c1.8-4.7 6.3-7.7 11.3-7.7h184.3c4 0 7.8 2 10 5.3 2.3 3.3 2.7 7.5 1.3 11.3l-9.3 23.8c-1.8 4.7-6.3 7.7-11.3 7.7h-56.8l-35.9 91.6c-1.8 4.7-6.3 7.8-11.3 7.8z"/></g><g fill="#FFF"><path d="M96.2 231.3c-18.3 0-34.9-1-49.3-2.8-14.4-1.9-27.2-4.3-37.8-7.1-3.3-.9-6.1-3.1-7.7-6.1-1.6-3-1.8-6.6-.6-9.8L11.5 176c1.8-4.8 6.3-8 11.4-8h5.9c2 0 4 .5 5.8 1.5 8.6 4.6 18.9 8.3 30.8 10.9 12.1 2.6 25.3 4 39.3 4 10.3 0 17.5-.6 22.4-1.3-.8-.2-1.7-.4-2.6-.6-5.7-1.2-13.2-2.5-22.2-4-10.4-1.7-19.9-3.6-28.3-5.5-8.8-2.1-16.6-4.7-23-7.7h-.1c-7.3-3.4-13-7.7-17.1-12.5-4.8-5.8-7.2-12.6-7.2-20.4 0-9.3 3.4-17.7 10.2-25 6-6.5 14.2-11.7 25.2-16.1 20.1-8 46.4-11.9 80.3-11.9 15.8 0 30.9.8 45 2.3 14.2 1.5 26.6 3.7 36.7 6.4 3.3.9 6.1 3.1 7.6 6.1 1.6 3 1.8 6.6.7 9.8L222 132.3c-1.7 4.8-6.3 8-11.4 8h-5.8c-2 0-4-.5-5.8-1.5-6.3-3.4-14.9-6.3-25.7-8.7-11-2.5-23.3-3.7-36.4-3.7-7.7 0-14.3.4-19.7 1.1.4.1.9.2 1.3.3 6.3 1.3 13.8 2.6 22.2 3.9 24.8 3.9 42.3 8.5 53.6 14.1 18 8.9 21.8 21.8 21.8 31.1 0 10.3-4 19.7-11.7 27.4-6.7 6.7-15.8 12-26.9 16-10.8 3.9-23.1 6.7-36.6 8.5-13.1 1.7-28.2 2.5-44.7 2.5z"/><path d="M253.2 229.1h-54.1c-4 0-7.8-2-10-5.3s-2.7-7.5-1.3-11.3L236 89.4c1.8-4.7 6.3-7.7 11.3-7.7h75.1c14 0 26.5.6 37 1.7 11.1 1.2 20.9 3.3 29.2 6.4 9.2 3.4 16.4 8.1 21.6 13.9 5.8 6.6 8.8 14.7 8.8 24.2 0 10.3-3.6 19.7-10.7 27.9-6.4 7.4-15.4 13.5-27.5 18.8-22.4 9.8-52.3 14.5-91.3 14.5h-12.2l-12.7 32.4c-1.9 4.5-6.4 7.6-11.4 7.6zm42.6-87.6h1.6c14.6 0 25.9-1.7 33.5-4.9 4.4-1.9 5.8-3.6 6.2-4.6-.3-.1-.6-.3-1-.4-3.1-1.2-9.3-2.6-21.8-2.6h-13.5l-5 12.5z"/><path d="M492.4 229.1h-54.1c-4 0-7.8-2-10-5.3-2.3-3.3-2.7-7.5-1.3-11.3l15.9-40.5-44.8-71.8c-2.3-3.7-2.5-8.5-.3-12.3 2.1-3.9 6.2-6.3 10.6-6.3H466c4.4 0 8.5 2.4 10.6 6.2l20 36 51.2-39.7c2.1-1.6 4.7-2.5 7.4-2.5h62.2c5.3 0 10 3.4 11.6 8.5 1.6 5-.2 10.5-4.5 13.6l-103.4 73.4-17.4 44.3c-1.9 4.6-6.3 7.7-11.3 7.7z"/></g><g><path d="M1138.7 92.1c-.6-.8-1.5-1.3-2.5-1.3h-122.3c-1.2 0-2.4.8-2.8 1.9l-8.6 21.8c-.4.9-.2 2 .3 2.8.6.8 1.5 1.3 2.5 1.3h29.6l-28.8 73.4h-32c-1.2 0-2.4.8-2.8 1.9l-8.6 21.8c-.4.9-.2 2 .3 2.8.6.8 1.5 1.3 2.5 1.3h122.3c1.2 0 2.4-.8 2.8-1.9l8.6-21.8c.4-.9.2-2-.3-2.8-.6-.8-1.5-1.3-2.5-1.3h-29.6l28.8-73.4h32c1.2 0 2.4-.8 2.8-1.9l8.6-21.8c.4-.9.2-2-.3-2.8zM1344 92.1c-.6-.8-1.5-1.3-2.5-1.3h-49.8c-1.3 0-2.4.8-2.8 1.9l-25.7 66.2-49.4-66.9c-.6-.8-1.5-1.2-2.4-1.2h-60.3c-1.3 0-2.4.8-2.8 1.9l-48.2 123.2c-.4.9-.2 2 .3 2.8.6.8 1.5 1.3 2.5 1.3h49.7c1.3 0 2.4-.8 2.8-1.9l31.3-80.1 58.1 80.8c.6.8 1.5 1.3 2.5 1.3h46.1c1.2 0 2.4-.8 2.8-1.9L1344.4 95c.3-1 .2-2.1-.4-2.9zM1543.3 92.1c-.6-.8-1.5-1.3-2.5-1.3h-184.3c-1.3 0-2.4.8-2.8 1.9l-9.3 23.8c-.4.9-.2 2 .3 2.8.6.8 1.5 1.3 2.5 1.3h60.7l-37.3 95.2c-.4.9-.2 2 .3 2.8s1.5 1.3 2.5 1.3h54.1c1.2 0 2.4-.8 2.8-1.9l38.1-97.4h63c1.3 0 2.4-.8 2.8-1.9l9.3-23.8c.5-.9.4-2-.2-2.8z"/></g><path d="M787.5 109.7c-4.2-4.7-10.2-8.5-17.9-11.4-7.6-2.8-16.7-4.7-27-5.9-10.2-1.1-22.3-1.7-36-1.7h-75.1c-1.2 0-2.4.8-2.8 1.9l-48.2 123.2c-.4.9-.2 2 .3 2.8.6.8 1.5 1.3 2.5 1.3h54.1c1.3 0 2.4-.8 2.8-1.9l14.9-38.2h18.4c37.3 0 66.8-4.6 87.7-13.7 21.7-9.5 32.8-22.3 32.8-38.3.1-7.1-2.1-13.2-6.5-18.1zm-108.8 10.1h19.7c11.2 0 19.6 1.1 25.2 3.3 6.2 2.4 6.9 5.6 6.9 7.8 0 6-3.9 10.6-11.9 14-8.7 3.8-21.2 5.7-37.1 5.7h-14.9l12.1-30.8z"/><g><path fill="#F78E1E" d="M96.2 219.2c-17.9 0-33.8-.9-47.8-2.7-14-1.8-26.1-4.1-36.3-6.8l10.8-29.5h5.9c9.6 5.2 20.9 9.2 33.9 12 13 2.8 27 4.3 41.9 4.3 15.3 0 26.6-1.2 33.8-3.7 7.2-2.5 10.8-6 10.8-10.5 0-1.7-.6-3.2-1.8-4.4-1.2-1.2-3.4-2.5-6.8-3.7-3.4-1.2-8-2.4-13.8-3.6-5.8-1.2-13.4-2.6-22.7-4.1-10-1.7-19.1-3.5-27.2-5.5-8.1-1.9-15-4.2-20.7-6.9-5.7-2.7-10-5.8-13-9.3-2.9-3.5-4.4-7.7-4.4-12.7 0-12.4 9.2-22.2 27.7-29.6 18.5-7.4 43.7-11 75.8-11 15.4 0 30 .7 43.7 2.2 13.7 1.5 25.3 3.5 34.9 6l-10.2 28.4h-5.8c-7.3-3.9-16.9-7.2-28.8-9.9-11.9-2.7-24.9-4-39.1-4-13.8 0-24.5 1.2-32.1 3.5-7.6 2.4-11.4 5.6-11.4 9.8 0 1.9.6 3.5 1.7 4.8 1.1 1.3 3.4 2.5 6.9 3.7 3 1.1 7.7 2.3 14.2 3.6 6.5 1.3 14 2.6 22.7 4 23.4 3.7 40.1 8 50.1 13s15 11.7 15 20.2c0 7.1-2.7 13.4-8.1 18.8-5.4 5.4-12.9 9.8-22.4 13.2-10 3.6-21.4 6.2-34.1 7.9-12.9 1.7-27.3 2.5-43.3 2.5z"/><path d="M96.2 222.2c-17.9 0-34.1-.9-48.2-2.8-14.1-1.8-26.4-4.1-36.6-6.9-.8-.2-1.5-.8-1.9-1.5s-.5-1.6-.2-2.4l10.8-29.5c.4-1.2 1.6-2 2.9-2h5.9c.5 0 1 .1 1.4.4 9.3 5 20.5 9 33.2 11.7 12.7 2.8 26.6 4.2 41.3 4.2 14.9 0 26-1.2 32.8-3.5 5.8-2 8.7-4.6 8.7-7.7 0-.9-.3-1.7-.9-2.3-.5-.5-1.8-1.5-5.6-2.9-3.2-1.2-7.7-2.3-13.4-3.5-5.8-1.2-13.4-2.5-22.5-4.1-10.2-1.7-19.5-3.5-27.6-5.4-8.2-2-15.4-4.3-21.3-7.1-6.1-2.9-10.8-6.3-14-10.2-3.4-4.1-5.1-9-5.1-14.6 0-13.7 10-24.6 29.6-32.4 18.7-7.5 44.6-11.3 76.9-11.3 15.5 0 30.3.8 44 2.3 13.8 1.5 25.7 3.6 35.3 6.1.8.2 1.5.8 1.9 1.5s.5 1.6.2 2.4l-10.2 28.4c-.4 1.2-1.6 2-2.9 2h-5.8c-.5 0-1-.1-1.4-.4-7-3.8-16.4-7-28-9.6-11.7-2.6-24.6-3.9-38.4-3.9-13.5 0-24 1.1-31.2 3.4-4.2 1.3-9.2 3.6-9.2 6.9 0 1.2.3 2.1.9 2.8.4.4 1.6 1.5 5.6 2.9 2.8 1 7.4 2.2 13.7 3.5 6.4 1.3 14 2.6 22.6 4 23.9 3.8 40.6 8.1 50.9 13.3 11.1 5.5 16.7 13.2 16.7 22.9 0 7.9-3 15-9 20.9-5.7 5.7-13.7 10.4-23.6 13.9-10.1 3.6-21.8 6.3-34.7 8-12.8 1.7-27.5 2.5-43.6 2.5zm-80.1-14.6c9.3 2.3 20.3 4.3 32.6 5.9 13.8 1.8 29.7 2.7 47.4 2.7 15.9 0 30.3-.8 42.8-2.5 12.4-1.6 23.7-4.2 33.5-7.7 9.1-3.2 16.2-7.4 21.3-12.4 4.9-4.9 7.2-10.3 7.2-16.6 0-7.3-4.4-13-13.3-17.5-9.7-4.8-26.2-9.1-49.2-12.7-8.7-1.4-16.4-2.7-22.8-4-6.7-1.3-11.4-2.6-14.6-3.7-4-1.4-6.6-2.9-8.1-4.6-1.6-1.8-2.4-4.1-2.4-6.8 0-5.6 4.5-9.9 13.5-12.7 7.8-2.4 18.9-3.7 33-3.7 14.3 0 27.6 1.4 39.7 4.1 11.8 2.6 21.5 5.9 28.9 9.8h2.9l8.4-23.2c-8.7-2.1-19.2-3.8-31.2-5.1-13.5-1.5-28.1-2.2-43.4-2.2-31.5 0-56.7 3.6-74.7 10.8-17.1 6.8-25.8 15.8-25.8 26.8 0 4.2 1.2 7.7 3.7 10.7 2.6 3.2 6.7 6.1 11.9 8.5 5.5 2.5 12.2 4.8 20.1 6.7 8 1.9 17.1 3.7 27.2 5.3 9.3 1.5 16.9 2.9 22.8 4.1 6 1.2 10.8 2.5 14.2 3.7 3.9 1.4 6.4 2.8 8 4.5 1.7 1.8 2.6 4 2.6 6.5 0 6-4.3 10.5-12.9 13.4-7.6 2.6-19 3.8-34.8 3.8-15.1 0-29.4-1.5-42.6-4.3-12.9-2.8-24.4-6.8-34.1-12h-3l-8.8 24.4z"/><path fill="#F78E1E" d="M406.8 127.9c0 14.7-10.3 26.5-30.9 35.5-20.6 9-49.5 13.5-86.5 13.5h-20.5L253.2 217h-54.1l48.2-123.2h75.1c13.7 0 25.6.6 35.7 1.7 10.1 1.1 18.9 3 26.3 5.7 7.3 2.7 12.9 6.2 16.7 10.5 3.8 4.3 5.7 9.7 5.7 16.2zm-57.5 3c0-4.8-3-8.4-8.9-10.7-5.9-2.3-14.7-3.5-26.3-3.5h-21.8l-14.3 37h19.4c16.4 0 29.1-2 38.3-5.9 9.1-4 13.6-9.6 13.6-16.9z"/><path d="M253.2 220h-54.1c-1 0-1.9-.5-2.5-1.3-.6-.8-.7-1.9-.3-2.8l48.2-123.2c.5-1.2 1.6-1.9 2.8-1.9h75.1c13.7 0 25.8.6 36 1.7 10.3 1.1 19.4 3.1 27 5.9 7.7 2.9 13.8 6.7 17.9 11.4 4.3 4.9 6.5 11 6.5 18.2 0 15.9-11 28.8-32.8 38.3-20.9 9.1-50.4 13.7-87.7 13.7H271l-15 38.1c-.4 1.1-1.5 1.9-2.8 1.9zm-49.7-6.1h47.6l14.9-38.2c.5-1.2 1.6-1.9 2.8-1.9h20.5c36.4 0 65.1-4.5 85.3-13.2 19.6-8.5 29.1-19.2 29.1-32.7 0-5.7-1.6-10.4-5-14.2-3.5-3.9-8.7-7.2-15.5-9.7-7.1-2.6-15.7-4.5-25.6-5.5-10-1.1-21.9-1.6-35.4-1.6h-73l-45.7 117zm93.9-57.2H278c-1 0-1.9-.5-2.5-1.3s-.7-1.9-.3-2.8l14.4-36.9c.5-1.2 1.6-1.9 2.8-1.9h21.8c12.1 0 21.1 1.2 27.4 3.7 8.9 3.5 10.8 9.3 10.8 13.5 0 8.6-5.2 15.2-15.5 19.6-9.5 4-22.8 6.1-39.5 6.1zm-15-6.1h14.9c15.9 0 28.4-1.9 37.1-5.7 8-3.4 11.9-8 11.9-14 0-2.2-.7-5.4-6.9-7.8-5.5-2.2-14-3.3-25.2-3.3h-19.7l-12.1 30.8z"/><g><path fill="#F78E1E" d="M617.5 93.8l-106.4 75.5-18.7 47.7h-54.1l18.1-46.2-48-77H466l26.8 48.3 62.4-48.3h62.3z"/><path d="M492.4 220h-54.1c-1 0-1.9-.5-2.5-1.3-.6-.8-.7-1.9-.3-2.8l17.6-44.7-47.2-75.7c-.6-.9-.6-2.1-.1-3.1s1.6-1.6 2.7-1.6H466c1.1 0 2.1.6 2.7 1.6l25.1 45.2 59.6-46.2c.5-.4 1.2-.6 1.9-.6h62.2c1.3 0 2.5.9 2.9 2.1.4 1.3-.1 2.6-1.1 3.4l-105.6 75-18.4 46.8c-.6 1.1-1.7 1.9-2.9 1.9zm-49.7-6.1h47.6l18-45.7c.2-.5.6-1 1.1-1.4l98.6-70h-51.6l-61.6 47.7c-.7.5-1.6.8-2.5.6-.9-.2-1.6-.7-2-1.5l-26-46.8h-50.4l45.1 72.4c.5.8.6 1.8.3 2.7l-16.6 42z"/></g></g><g><path fill="#FFF" d="M1585.6 101.3c0 5.4-1.9 10.1-5.8 13.9-3.8 3.8-8.5 5.8-13.9 5.8s-10.1-1.9-13.9-5.8c-3.8-3.8-5.8-8.5-5.8-13.9 0-2.8.5-5.3 1.5-7.6l-6.8-12h25c5.4 0 10.1 1.9 13.9 5.8 3.9 3.7 5.8 8.4 5.8 13.8z"/><path d="M1579.7 101.3c0 3.8-1.3 7-4 9.7-2.7 2.7-5.9 4-9.7 4-3.8 0-7-1.3-9.7-4-2.7-2.7-4-5.9-4-9.7 0-3.8 1.3-7 4-9.7 2.7-2.7 5.9-4 9.7-4 3.8 0 7 1.3 9.7 4 2.6 2.7 4 5.9 4 9.7zm-3.1 0c0-3-1-5.5-3.1-7.6-2.1-2.1-4.6-3.2-7.6-3.2s-5.5 1.1-7.6 3.2c-2.1 2.1-3.1 4.7-3.1 7.6 0 3 1.1 5.5 3.1 7.6 2.1 2.1 4.6 3.2 7.6 3.2s5.5-1.1 7.6-3.2c2.1-2.1 3.1-4.6 3.1-7.6zm-3 6.5h-4.3l-4.1-5h-1.4v5h-3.4V94.1h5.2c1 0 1.7 0 2.3.1.6.1 1.2.3 1.7.6.6.4 1.1.8 1.4 1.3.3.5.4 1.1.4 1.9 0 1-.3 1.8-.8 2.5-.6.6-1.3 1.2-2.2 1.5l5.2 5.8zm-5.8-9.6c0-.3-.1-.5-.2-.8-.1-.2-.3-.4-.6-.6l-.9-.3c-.3 0-.7-.1-1.2-.1h-1.1v3.8h.8c.6 0 1 0 1.4-.1.4-.1.7-.2 1-.4.2-.2.4-.4.5-.7.2-.1.3-.4.3-.8z"/></g></svg>